<?xml version="1.0" encoding="UTF-8"?>
<svg width="176px" height="176px" viewBox="0 0 176 176" version="1.1" xmlns="http://www.w3.org/2000/svg" xmlns:xlink="http://www.w3.org/1999/xlink">
    <!-- Generator: Sketch 57.1 (83088) - https://sketch.com -->
    <title>未命名</title>
    <desc>Created with Sketch.</desc>
    <defs>
        <linearGradient x1="50%" y1="0%" x2="50%" y2="100%" id="linearGradient-1">
            <stop stop-color="#16A1E9" offset="0%"></stop>
            <stop stop-color="#26BEB8" offset="100%"></stop>
        </linearGradient>
    </defs>
    <g id="页面-1" stroke="none" stroke-width="1" fill="none" fill-rule="evenodd">
        <g id="编组" fill="url(#linearGradient-1)" fill-rule="nonzero">
            <path d="M93.0615235,2.15332031 L93.0761719,2.15332031 L173.642578,82.866211 C175.73663,84.9608955 176.362953,88.1106198 175.229575,90.8470793 C174.096197,93.5835388 171.426239,95.3680199 168.464355,95.3686524 L113.583984,95.3613281 L113.583984,168.457031 C113.583984,172.502086 110.30482,175.78125 106.259766,175.78125 L62.4243164,175.78125 C58.3792621,175.78125 55.1000976,172.502086 55.1000976,168.457031 L55.1000976,95.3613281 L7.31689453,95.3613281 C4.35822434,95.3577448 1.69227829,93.5744199 0.559562519,90.8411623 C-0.573153257,88.1079047 0.0498471349,84.9615757 2.13867193,82.866211 L82.7050781,2.15332031 C85.5651845,-0.705922406 90.2014171,-0.705922406 93.0615235,2.15332031 Z" id="路径"></path>
        </g>
    </g>
</svg>